<?xml version="1.0" encoding="UTF-8" standalone="no"?>
<!-- Created with Inkscape (http://www.inkscape.org/) -->

<svg
   version="1.1"
   id="sf-white-logo"
   viewBox="0 0 302.36221 302.36221"
   xmlns="http://www.w3.org/2000/svg"
   xmlns:svg="http://www.w3.org/2000/svg">
  <defs
     id="defs1" />
  <g
     id="g1">
    <g
       id="g20507"
       transform="translate(-74.723729,27.160731)">
      <path
         style="fill:#fefefe"
         d="m 177.56993,268.63698 c -25.34166,-4.46458 -24.68466,-23.618 1.41196,-41.16204 l 6.59088,-4.43087 -0.97645,-1.30367 c -0.53704,-0.71702 -2.76508,-3.65231 -4.95119,-6.52285 -2.18611,-2.87055 -5.87062,-9.00441 -8.18781,-13.63081 l -4.21305,-8.41162 -13.3555,-0.35961 -13.35551,-0.35961 -4.27592,-1.65038 c -19.42452,-7.49733 -15.78381,-37.74559 5.00566,-41.58873 6.08667,-1.12518 82.40662,-1.12518 88.49328,0 11.77823,2.17732 16.98531,8.58232 16.97749,20.88329 -0.009,13.57607 -7.05146,22.0754 -18.35484,22.15069 l -2.42834,0.0162 5.24505,3.39759 c 26.44804,17.13226 61.60501,-0.12189 66.87063,-32.81843 3.11984,-19.37247 -15.76217,-45.25383 -35.07631,-48.07871 l -3.02362,-0.44224 -4.15748,7.29011 c -16.4152,28.78389 -63.49607,18.53449 -63.49607,-13.82295 v -2.48688 h -5.62008 c -6.14017,0 -8.99035,-0.78296 -11.53831,-3.16961 -2.06398,-1.93332 -3.71739,-1.38143 -4.3389,1.44827 -1.56185,7.11108 -6.38193,10.00266 -16.67594,10.00394 -15.92818,0.002 -21.30119,-2.92444 -23.29243,-12.6863 -1.23008,-6.030335 -0.84924,-5.837595 -10.97539,-5.554305 l -8.81879,0.24672 -2.6264,-1.77566 c -11.103273,-7.50669 -15.241042,-25.061907 -7.83577,-33.244638 1.58915,-1.755998 0.87953,-3.326696 -1.756327,-3.887505 -15.207319,-3.235529 -12.886655,-39.757414 2.531007,-39.83218 5.18445,-0.02514 7.52686,-2.336835 6.11712,-6.036923 -6.68463,-17.5449545 20.41496,-37.028229 34.17834,-24.572544 2.0938,1.89486 3.96772,1.150606 4.74693,-1.885305 4.01859,-15.656978 37.61584,-12.665724 39.81567,3.544896 0.64128,4.7256195 2.3169,6.6752525 4.91576,5.7196475 18.5433,-6.8183845 37.6058,17.8652295 25.81618,33.4288075 -2.20165,2.906423 -1.81173,3.953539 1.83819,4.93636 1.61189,0.434038 3.91834,1.620187 5.12543,2.635887 l 2.19471,1.846726 11.56306,-19.977435 c 15.11233,-26.1094915 18.20899,-29.121231 31.65859,-30.790341 3.61041,-0.448056 3.70495,-0.485931 6.27033,-1.268936 l 8.11198,-2.447161 5.7289,-0.960925 c 11.80659,-1.980357 13.3781,2.889066 13.41819,14.8230445 0.008,2.286614 4.28512,8.43065 5.11125,11.066116 4.10102,13.0827745 2.09228,21.1009235 -10.91177,43.5557195 -5.2872,9.129693 -9.67436,16.882084 -9.74924,17.227536 -0.0749,0.345451 2.30161,1.587943 5.28108,2.761083 54.79658,21.57566 75.48973,92.706835 41.41173,142.349755 l -4.00582,5.83545 5.99194,4.19866 c 15.54999,10.89616 21.19226,22.62196 16.07466,33.40649 -5.04676,10.63526 -31.69557,13.8657 -113.64564,13.77642 l -53.29134,-0.058 z M 166.28389,59.368855 c 7.77432,-4.930325 6.64035,-29.662934 -1.90392,-33.202085 -6.55452,-2.714973 -27.21969,12.873498 -24.15602,19.329709 1.24444,2.622466 4.00932,15.875231 14.99734,13.073167 0.44654,-0.113872 9.18432,1.99038 11.0626,0.799209 z"
         id="path20522" />
      <path
         style="fill:#f9f9f9"
         d="m 213.8561,269.57901 c -57.56405,-1.50363 -69.12798,-16.76051 -31.12208,-41.06095 7.63224,-4.87995 7.63827,-4.90179 2.88422,-10.45339 -5.24143,-6.12072 -9.6805,-12.98245 -13.04884,-20.1703 -3.49006,-7.44759 -2.7569,-7.14764 -17.50384,-7.16127 -29.45951,-0.0272 -41.72953,-27.00563 -17.29614,-38.02947 l 3.51975,-1.58804 21.7906,-0.64062 c 11.98482,-0.35234 31.88404,-0.3529 44.22047,-0.001 l 22.42988,0.63938 3.51974,1.58928 c 19.22331,8.67992 12.72948,38.02039 -8.41494,38.02039 -5.20136,0 -0.55353,5.048 8.67472,9.42159 40.19827,19.05136 81.71712,-23.44114 61.80127,-63.25057 -6.25848,-12.50998 -23.34444,-24.78519 -34.49866,-24.78519 h -2.60336 l -3.54805,6.15126 c -4.7492,8.23372 -8.60353,12.24248 -14.61745,15.20312 l -4.99015,2.45664 h -8.00989 -8.00989 l -6.49022,-3.21603 c -10.86667,-5.38489 -16.87585,-13.67038 -17.85805,-24.62299 l -0.48615,-5.42106 -1.51005,0.25384 c -5.74876,0.96639 -10.25848,0.31558 -14.02115,-2.02342 -5.58329,-3.470765 -8.13416,-2.976885 -10.2034,1.9755 -2.64155,6.32214 -6.77122,8.79087 -14.70283,8.78942 -13.92586,-0.003 -19.09093,-3.74575 -21.51989,-15.595765 -0.25146,-1.22677 -1.2713,-2.50352 -2.51244,-3.14534 l -2.08917,-1.08035 -4.1361,1.10899 c -9.69219,2.59871 -17.18461,-1.71749 -23.02457,-13.26388 -2.029099,-4.01181 -1.347143,-11.901105 1.33241,-15.414181 3.59556,-4.71402 2.81813,-7.80361 -2.557427,-10.163545 -1.983878,-0.870945 -4.424529,-2.762976 -5.669292,-4.394923 L 91.399406,46.84054 91.125771,40.821676 c -0.622492,-13.692318 5.119745,-22.41643 14.770819,-22.441136 3.45306,-0.0088 5.53962,-4.292089 4.1011,-8.4186335 -5.22727,-14.994947 15.51869,-31.2968595 28.43634,-22.3449195 4.96229,3.4388695 8.33788,2.7561655 10.35807,-2.094888 6.01729,-14.449275 32.38041,-11.029994 35.51262,4.6059655 1.15034,5.742451 3.16548,7.127056 8.35329,5.739529 8.44318,-2.258207 14.22657,-0.459982 19.34459,6.014806 7.43882,9.4108145 7.83557,15.2629935 1.68996,24.9274875 -1.83154,2.88024 -0.45847,5.396455 4.24553,7.780154 2.0687,1.048289 4.6851,3.117179 5.81422,4.597535 2.53805,3.32755 1.16647,5.029827 14.33208,-17.787629 17.542,-30.4022105 19.64853,-32.489449 34.27816,-33.964269 4.22141,-0.425562 6.85188,-1.137375 8.89357,-2.406628 2.3434,-1.456812 3.92597,-1.802333 8.25516,-1.802333 h 5.35597 l 3.12139,2.163122 c 4.23314,2.933571 6.19817,7.1846185 6.19817,13.4088215 0,3.054905 0.60029,6.582051 1.59964,9.399138 4.11066,11.5875695 2.66437,16.8034895 -11.45795,41.3222705 -12.23668,21.244976 -11.95436,19.598323 -3.92289,22.880516 55.96604,22.87142 75.84266,93.106255 39.85956,140.845325 -5.05303,6.7039 -5.31917,5.35971 2.07912,10.50098 16.56833,11.51377 22.69748,22.81465 16.97862,31.30505 -5.62465,8.35054 -30.48056,12.39011 -87.84476,14.27649 -21.25422,0.69893 -28.9144,0.73924 -47.62205,0.25058 z m 63.49606,-11.63768 c 43.0775,-2.03304 64.91664,-5.85633 66.01447,-11.55689 1.04553,-5.42899 -9.81216,-16.12389 -24.3012,-23.93686 l -5.90878,-3.18621 -54.18571,1.67611 -54.18571,1.67611 -5.66929,2.65027 c -15.80443,7.38824 -31.14402,20.91034 -30.09386,26.52821 1.15536,6.18062 49.50858,8.92534 108.33008,6.14926 z m -24.94488,-42.27641 c 25.36063,-0.81949 50.21044,-1.49428 55.2218,-1.49953 l 9.11156,-0.01 2.32392,-2.45669 c 30.45463,-32.19457 28.10906,-86.87584 -5.06331,-118.038755 -10.31126,-9.68665 -31.12408,-21.08311 -33.68886,-18.447 -0.78656,0.80844 -11.71849,19.27314 -14.61677,24.68862 l -0.77976,1.456995 6.21815,1.94962 c 16.36478,5.13098 29.51884,18.19375 35.12244,34.87871 l 2.03095,6.04724 0.0285,10.96063 0.0284,10.96063 -1.76506,5.29134 c -12.97529,38.89771 -59.76647,51.22938 -89.9494,23.70588 l -4.02942,-3.67438 H 196.34 180.07958 l 2.80248,5.10236 c 3.25252,5.92172 11.29406,16.46408 14.82452,19.43477 l 2.43687,2.05049 3.0768,-0.4557 c 1.69224,-0.25063 23.82641,-1.12619 49.18704,-1.94569 z m -20.94144,-37.97828 c 7.9268,-5.24707 7.59911,-15.59354 -0.64051,-20.2237 l -3.36293,-1.88977 h -41.95276 -41.95275 l -3.24995,1.86098 c -7.56119,4.32966 -8.56344,14.82355 -1.86382,19.51496 4.34006,3.03913 5.3559,3.10133 48.2564,2.95502 l 41.63082,-0.14198 z m 5.16906,-54.09076 c 4.73868,-2.42921 7.33074,-5.46029 12.60011,-14.73421 2.6468,-4.65828 14.34756,-24.967235 26.00168,-45.131013 26.10097,-45.159505 24.50918,-42.03529 24.50918,-48.104196 0,-16.38665346 -19.52647,-28.448701 -34.3055,-21.1914695 -5.64124,2.77013 -5.34558,2.342702 -23.61966,34.1460575 -8.59994,14.96693 -19.30026,33.505513 -23.77849,41.196856 -16.36413,28.10529 -17.14759,30.10233 -14.87561,37.917675 4.00968,13.79282 21.43261,22.0702 33.46829,15.9003 z m -78.32934,-23.20821 c 2.14636,-1.109925 3.44212,-3.940815 3.95042,-8.630645 l 0.19855,-1.8319 6.80314,-1.70664 c 9.15679,-2.29708 9.19583,-2.29223 12.81198,1.59091 4.05624,4.35573 5.74355,4.36569 11.58105,0.0684 7.5877,-5.58575 8.69492,-8.69837 4.74006,-13.32527 -2.79464,-3.26951 -2.80505,-3.87279 -0.13417,-7.772257 1.19035,-1.7379 2.90168,-4.612588 3.80294,-6.388196 l 1.63867,-3.228378 4.77418,0.204441 c 7.05382,0.302061 8.88813,-1.85446 9.92928,-11.67342 l 0.53816,-5.075342 -2.29474,-2.294737 c -1.78199,-1.781995 -2.96265,-2.294738 -5.28395,-2.294738 -3.66764,0 -4.1001,-0.535722 -5.79688,-7.181102 -2.28981,-8.967906 -2.2988,-9.777981 -0.12442,-11.202691 6.24819,-4.093974 6.54067,-7.343488 1.28574,-14.2850885 -5.13636,-6.784977 -8.23445,-7.658443 -12.92952,-3.645305 -3.012,2.574523 -4.22631,2.78666 -6.12348,1.06975 -0.74672,-0.675778 -3.49477,-2.32327596 -6.10676,-3.66110696 l -4.74908,-2.43242104 v -4.842859 c 0,-7.7486825 -1.3628,-8.9206025 -11.81386,-10.1591715 -6.28858,-0.745269 -9.72945,2.038163 -9.72945,7.87048 0,2.8354795 -1.75087,4.6269645 -4.52208,4.6269645 -1.1805,0 -4.26265,0.65866 -6.84921,1.463688 l -4.70285,1.463689 -1.60072,-1.939229 c -5.34715,-6.4779045 -7.16356,-6.9244895 -12.84848,-3.158956 -8.46111,5.604406 -9.66591,8.59675204 -5.77388,14.340523 2.75934,4.0721725 2.79117,4.7700915 0.34984,7.6714445 -1.0624,1.26259 -2.78957,3.988658 -3.83814,6.057928 l -1.90651,3.762311 -3.88201,-0.373013 c -7.52269,-0.722834 -9.20884,0.894278 -10.507482,10.077275 l -0.85641,6.055859 1.491338,1.997485 c 1.528244,2.046919 3.113024,2.758602 7.930494,3.561392 l 2.75162,0.458532 0.51675,3.445924 c 0.28421,1.895258 1.00189,4.82096 1.59484,6.501558 1.66017,4.705438 1.38775,6.330321 -1.3786,8.222638 -5.48871,3.754535 -5.75897,6.583649 -1.21476,12.715969 5.63563,7.60516 8.095,8.46856 13.17459,4.62515 3.69064,-2.79248 4.2174,-2.80055 8.12444,-0.12447 1.7379,1.19035 4.64611,2.91877 6.46269,3.84094 l 3.30287,1.67667 -0.37647,3.90709 c -0.65106,6.75671 1.23617,9.01631 8.542,10.227405 6.00568,0.99558 6.62305,0.97665 9.04827,-0.27748 z m -9.45733,-3.329305 c -4.97936,-0.82146 -5.13816,-1.07655 -4.55359,-7.31475 l 0.51979,-5.54697 -4.878,-2.30475 c -2.68291,-1.26761 -6.43206,-3.49136 -8.33146,-4.94166 -4.26102,-3.25353 -4.47346,-3.2533 -8.28446,0.009 -4.20502,3.59934 -5.80639,3.42334 -9.5515,-1.04979 -4.38642,-5.23909 -4.24168,-7.388221 0.72313,-10.73742 4.19814,-2.832013 4.15362,-2.56728 1.64032,-9.756099 -0.79943,-2.286614 -1.69624,-6.021961 -1.9929,-8.30077 -0.60931,-4.680417 -1.18646,-5.277625 -5.11614,-5.293955 -1.53199,-0.0064 -3.70703,-0.361961 -4.83341,-0.790212 l -2.04797,-0.778637 0.48671,-5.757797 c 0.65141,-7.706168 0.98518,-8.02703 7.69576,-7.398197 l 5.42569,0.508428 2.40443,-5.13815 c 1.32243,-2.825983 3.58209,-6.575331 5.02145,-8.331884 3.19755,-3.90219 3.19876,-3.585478 -0.0286,-7.5240975 -3.71355,-4.531896 -3.49421,-6.32750996 1.2326,-10.091058 5.6028,-4.461012 7.96099,-3.681763 13.26864,4.38453404 0.10544,0.16024696 2.4984,-0.444477 5.31768,-1.34383 2.81928,-0.89935304 7.12828,-1.95561704 9.57556,-2.34725404 5.41419,-0.866431 5.12608,-0.583803 5.82188,-5.711165 0.87052,-6.4149085 6.82614,-8.4468085 13.82566,-4.7169515 l 1.41998,0.756667 -0.5017,5.5363815 -0.50169,5.536381 4.74971,2.13154404 c 2.61234,1.17234896 6.11093,3.16765996 7.77463,4.43402296 4.83822,3.682705 4.68298,3.6687 8.62113,0.777833 5.02033,-3.685261 6.68824,-3.536231 9.9745,0.891235 4.67841,6.3030435 4.61135,7.1344135 -0.87715,10.8751235 -4.23247,2.884659 -4.27261,3.01974 -2.25362,7.584008 0.81362,1.839323 1.8893,5.826822 2.3904,8.861109 1.01114,6.122666 1.14596,6.249473 7.84683,7.380439 l 3.77953,0.637905 -0.0944,5.925671 c -0.1227,7.702139 -0.77034,8.413721 -6.99957,7.690741 -2.53307,-0.293993 -4.85777,-0.541308 -5.16601,-0.549589 -0.30824,-0.0083 -1.79416,2.416123 -3.30204,5.387564 -1.50788,2.971442 -3.84295,6.773105 -5.18905,8.448141 l -2.44744,3.045518 2.0872,3.01184 c 1.14796,1.65651 2.37078,3.18709 2.71736,3.40129 0.34659,0.21421 0.62614,1.4749 0.62121,2.80155 l -0.009,2.41208 -4.08365,2.83464 c -5.48496,3.80737 -6.56858,3.67494 -10.20469,-1.24708 l -3.01535,-4.08173 -6.26834,2.18186 c -3.44757,1.20001 -7.4789,2.1864 -8.9585,2.19196 -3.82,0.0144 -4.9984,1.287 -5.50793,5.94841 -0.68209,6.24003 -1.73963,6.82158 -9.94363,5.46815 z m 8.55417,-15.19399 c 0.96306,-0.41177 4.02448,-1.25424 6.80315,-1.87216 2.77867,-0.61792 6.92299,-1.64373 9.2096,-2.27959 2.5135,-0.69894 5.38585,-0.97415 7.2639,-0.69598 l 3.10641,0.46012 0.3977,-3.52841 c 0.25933,-2.3008 1.31512,-4.889325 3.03455,-7.439981 1.45026,-2.151367 3.75756,-6.056302 5.12733,-8.677634 1.36978,-2.621332 3.02839,-5.076082 3.68582,-5.455002 3.38364,-1.950223 3.38755,-1.961491 1.65246,-4.768917 -0.90803,-1.469227 -2.137,-5.00237 -2.73105,-7.851429 -0.59404,-2.849059 -1.61901,-6.698889 -2.2777,-8.555178 -0.67648,-1.906418 -1.11663,-5.18063 -1.0115,-7.52438 l 0.18613,-4.14931 -4.02012,-0.892727 c -2.21106,-0.491001 -5.42329,-1.896096 -7.13828,-3.122434 -1.71499,-1.226338 -5.23368,-3.29404 -7.81931,-4.594893 -2.58562,-1.3008535 -5.45589,-3.3860495 -6.37837,-4.6337695 -1.98078,-2.679155 -2.32984,-2.732988 -5.01409,-0.773312 -1.12647,0.822398 -4.59931,2.020197 -7.71742,2.661776 -3.11811,0.641579 -7.32952,1.711607 -9.35869,2.3778425 -2.36137,0.775304 -4.96211,1.060601 -7.22511,0.792583 l -3.5357,-0.418752 -0.87076,4.151365 c -0.52067,2.482307 -1.9096,5.576186 -3.45461,7.695248 -1.42113,1.949135 -3.65684,5.682234 -4.96827,8.295777 -1.44769,2.885107 -3.11707,5.085721 -4.24941,5.601649 -2.25065,1.025462 -2.2764,1.335231 -0.37841,4.552075 0.81763,1.385777 2.01785,5.045095 2.66716,8.131818 0.64931,3.086723 1.70507,7.157102 2.34613,9.045287 0.64105,1.888184 1.05657,5.128571 0.92338,7.20086 l -0.24217,3.767798 3.58171,0.52062 c 2.37338,0.34498 5.30604,1.66294 8.69292,3.90668 2.81116,1.86233 6.34426,3.89691 7.85134,4.5213 1.50707,0.62438 3.7103,2.35111 4.89607,3.83719 l 2.15593,2.70195 1.52913,-1.11971 c 0.84102,-0.61583 2.31709,-1.4566 3.28015,-1.86837 z m -4.39669,-6.12519 c -16.97232,-2.89211 -28.55952,-19.055482 -25.91384,-36.148062 5.31964,-34.3677645 53.82144,-36.9372585 62.57885,-3.315259 5.91579,22.712222 -13.34025,43.437891 -36.66501,39.463321 z m 14.12144,-12.124779 c 9.619,-3.598931 15.83063,-13.298932 15.1735,-23.694774 -1.52903,-24.189536 -33.58473,-30.6456585 -45.03833,-9.070866 l -2.00647,3.779528 -0.007,6.803149 -0.007,6.80315 2.24224,4.048182 c 6.02959,10.885784 18.29896,15.576001 29.64306,11.331631 z m -16.76711,-3.562999 c -20.77992,-9.472612 -13.41522,-39.589883 9.51309,-38.902924 26.2449,0.786327 25.07016,40.281255 -1.19813,40.281255 -3.51112,0 -6.30861,-0.463727 -8.31496,-1.378331 z m 13.50366,-4.922064 c 7.35917,-3.074859 9.2251,-13.530012 3.44607,-19.30904 -10.70109,-10.701093 -27.32101,4.278658 -17.95616,16.184129 3.07124,3.904451 9.38835,5.264912 14.51009,3.124911 z"
         id="path20521" />
      <path
         style="fill:#f5f5f5"
         d="m 209.30445,268.58646 c -28.84056,-1.21884 -40.92184,-3.76171 -44.6092,-9.38934 -5.24324,-8.0022 1.8696,-19.17612 19.36775,-30.4258 7.29648,-4.69096 7.87735,-5.74805 4.73962,-8.62543 -3.74654,-3.43567 -10.60689,-13.34479 -14.53976,-21.00128 -4.83781,-9.41823 -4.36446,-9.17773 -18.0637,-9.17773 -29.18,0 -41.76976,-24.10472 -18.741,-35.88206 l 4.41901,-2.25997 21.51907,-0.59556 c 11.83548,-0.32756 31.43232,-0.31745 43.54852,0.0225 l 22.02945,0.61801 3.46915,1.56652 c 18.82945,8.5026 13.6541,34.15566 -7.32758,36.32116 -13.67234,1.41111 12.01995,16.01702 28.26825,16.07033 54.25726,0.17802 65.83421,-77.97969 13.81519,-93.26838 -8.36383,-2.45818 -8.89357,-2.19766 -14.65488,7.20697 -15.95443,26.04364 -55.12325,17.34119 -57.04958,-12.67516 l -0.35156,-5.47804 -6.13961,0.40282 -6.13962,0.40282 -3.6168,-2.3362 c -5.6378,-3.641615 -9.44988,-2.971875 -11.53863,2.0272 -2.53015,6.0555 -6.74046,8.69521 -13.93425,8.73627 -13.09932,0.0748 -18.38616,-3.88021 -20.77666,-15.542605 -0.26481,-1.29192 -1.28944,-2.51291 -2.73692,-3.26143 l -2.31365,-1.19643 -4.73631,1.18782 c -15.01233,3.76491 -29.166378,-15.00201 -20.61793,-27.337432 3.73875,-5.395012 2.70877,-8.976398 -3.370263,-11.718849 -13.457225,-6.070997 -8.673682,-31.648698 6.294413,-33.65634 1.96311,-0.263309 3.46177,-1.052379 4.50203,-2.370396 1.60299,-2.031004 1.60246,-2.000045 0.18707,-10.8622705 -2.16017,-13.52549 16.61256,-24.7801675 28.55286,-17.1180955 l 3.7299,2.3934695 2.42379,-0.690665 c 1.77214,-0.504975 2.93187,-1.6212635 4.31356,-4.1519695 4.62175,-8.465231 10.65806,-10.61157 22.20428,-7.8952 7.16869,1.68651 11.18137,5.70139 12.14929,12.1559515 0.30535,2.0362 1.18898,4.07418 2.16757,4.999246 l 1.65209,1.561708 3.77952,-0.496868 c 2.07874,-0.273277 5.19007,-0.674514 6.91406,-0.891638 4.64434,-0.584919 9.2386,1.731207 13.08412,6.596157 7.05105,8.9202495 7.78411,14.9536925 2.66062,21.8982005 -3.43428,4.654903 -2.34976,7.841375 3.806,11.182526 2.04785,1.111503 4.52293,3.211467 5.5002,4.666585 2.72238,4.053558 2.75129,4.019696 15.73133,-18.427908 16.80574,-29.0637575 19.99916,-32.226077 33.99628,-33.665231 4.12483,-0.424107 6.93478,-1.177632 9.01606,-2.417779 10.19218,-6.073093 21.50401,1.134062 21.56798,13.74170054 0.0143,2.81096396 0.64191,6.61838096 1.48714,9.02118496 3.92496,11.1578955 2.49473,16.2003155 -11.53401,40.6643295 l -11.3983,19.876927 1.07245,0.978446 c 0.58985,0.53814 2.77324,1.59321 4.85198,2.34459 56.31417,20.35523 77.65935,92.257935 41.5877,140.091065 -5.33017,7.06812 -5.43131,6.64702 3.03848,12.65081 21.7744,15.43474 24.01771,30.75444 5.26359,35.94537 -19.83852,5.49108 -85.38132,9.30847 -128.52016,7.48537 z m 54.81937,-9.83432 c 42.09133,-1.60147 70.00041,-4.91307 76.79477,-9.11222 7.71168,-4.76607 -1.89302,-16.8876 -21.99162,-27.75435 l -6.04725,-3.26957 -54.42519,1.65423 c -40.40981,1.22824 -54.71719,1.89782 -55.55906,2.60012 -0.62362,0.52023 -3.00472,1.71643 -5.29134,2.65822 -16.31956,6.72152 -32.99809,23.44651 -27.73621,27.81348 5.74986,4.77197 47.71678,7.18078 94.2559,5.41009 z m -3.77953,-42.33965 c 28.06299,-0.84028 52.36206,-1.60674 53.99792,-1.70324 l 2.97429,-0.17544 5.13159,-6.34709 c 27.15372,-33.58553 24.02478,-84.05903 -7.06102,-113.902635 -10.4417,-10.02445 -26.42111,-19.3951 -33.30605,-19.53134 l -3.10575,-0.0615 -7.42572,12.84219 c -8.87451,15.347715 -8.72804,13.405955 -1.18951,15.769535 28.92935,9.0703 45.19421,40.67558 35.46245,68.90933 -12.97628,37.64675 -58.24162,49.35323 -88.38054,22.8569 l -4.94398,-4.34646 h -16.53052 -16.53052 l 2.00714,3.96851 c 3.27353,6.47238 7.77343,12.68605 13.45984,18.58597 l 5.34589,5.54659 4.53543,-0.44178 c 2.49449,-0.24299 27.49607,-1.1293 55.55906,-1.96958 z M 232.1964,177.61917 c 7.90307,-5.4779 7.06935,-16.56382 -1.58506,-21.07651 l -3.14894,-1.64196 -41.97935,-0.0197 -41.97935,-0.0197 -3.45672,2.02577 c -7.39945,4.33637 -8.88793,12.28269 -3.45899,18.46591 4.32069,4.92099 2.6207,4.76452 49.74279,4.57828 l 42.77389,-0.16905 z m 4.33687,-53.70884 c 5.26162,-2.49167 7.61987,-5.32216 14.5561,-17.47102 6.56178,-11.492975 19.35406,-33.681185 36.73674,-63.719866 6.08583,-10.516797 11.45139,-20.655387 11.92347,-22.530199 4.7568,-18.8909425 -20.18343,-36.068528 -36.58993,-25.2013185 -4.07457,2.698886 -4.79308,3.743795 -16.08262,23.3883985 -24.53558,42.693674 -29.42122,51.18802 -35.86841,62.36221 -8.0019,13.86876 -9.0817,16.47717 -9.03588,21.827315 0.13849,16.16741 19.67092,28.3008 34.36053,21.34448 z M 159.867,99.316365 c 1.57202,-1.57202 2.20957,-2.94804 2.20957,-4.76891 0,-3.76937 1.15687,-4.61321 8.97034,-6.5431 l 7.08057,-1.74886 3.19291,3.47774 c 4.69328,5.11195 16.07415,1.95294 18.82913,-5.22643 1.00531,-2.61979 0.43691,-5.86686 -1.41153,-8.06361 -2.47057,-2.93611 -2.38587,-4.24387 0.56693,-8.753576 1.35118,-2.063608 3.05428,-4.850651 3.78467,-6.19343 l 1.32798,-2.441415 3.60124,0.495297 c 6.90249,0.949334 9.42748,-1.51768 10.47004,-10.229631 1.06435,-8.893975 -1.02815,-12.046477 -7.99594,-12.046477 -2.40298,0 -3.82187,-1.253713 -3.80696,-3.36378 0.006,-0.852283 -0.7394,-3.855017 -1.65648,-6.672742 l -1.66744,-5.123136 3.69743,-3.253567 c 4.84298,-4.261605 4.98036,-6.764389 0.7116,-12.9641605 -5.56378,-8.08061 -10.80437,-9.379824 -15.4169,-3.822064 -1.34577,1.621551 -2.79657,1.485974 -5.53332,-0.517087 -1.27807,-0.93543396 -4.05184,-2.55118196 -6.16393,-3.590552 l -3.84018,-1.889764 0.26334,-5.062358 0.26334,-5.0623575 -1.83309,-1.833091 c -1.44891,-1.448907 -3.22357,-2.03047 -8.46756,-2.774855 l -6.63447,-0.941764 -2.0005,1.489231 c -2.01457,1.499697 -2.51001,2.603973 -3.64749,8.1298345 l -0.62074,3.015505 -3.98284,0.570892 c -2.19056,0.31399 -5.20848,1.082996 -6.70648,1.708903 -3.89386,1.62696 -4.25343,1.510124 -6.89769,-2.241315 -3.89898,-5.5315345 -7.03115,-5.5260255 -14.18217,0.02494 -6.55652,5.089492 -7.52244,8.556975 -3.75838,13.491919 2.3506,3.081785 2.37226,4.5820485 0.10907,7.5548955 -0.97938,1.286487 -2.52546,3.801309 -3.43573,5.588495 -1.96119,3.850545 -2.82248,4.287672 -6.46598,3.281654 -6.39587,-1.765984 -9.187944,1.462335 -9.960815,11.517108 l -0.495008,6.439873 1.934113,1.722762 c 1.06376,0.947519 3.74158,2.070776 5.95071,2.496126 l 4.01659,0.773365 0.574,3.401574 c 0.3157,1.870867 1.13349,5.183109 1.81731,7.360538 1.38943,4.424252 1.0053,5.444317 -2.78914,7.406494 -4.81516,2.49002 -4.37229,7.429736 1.28056,14.282956 l 4.096,4.96577 h 2.949 c 2.04277,0 3.63915,-0.58073 5.19486,-1.88977 2.95174,-2.48373 4.52057,-2.38523 9.02928,0.56693 2.06361,1.35118 4.84374,3.05031 6.17806,3.77585 l 2.42604,1.31916 -0.50845,4.0695 c -0.78615,6.29212 0.91755,8.35782 7.8608,9.531055 7.06489,1.1938 9.1165,0.93666 11.49373,-1.440565 z m -10.05052,-2.59723 c -5.95189,-1.18745 -6.29259,-1.6632 -5.19314,-7.25161 1.09837,-5.58292 1.08729,-5.60232 -4.71252,-8.25011 -2.56789,-1.17232 -6.14675,-3.3754 -7.95301,-4.89574 -3.74006,-3.14801 -5.34017,-3.41643 -7.32065,-1.22803 -0.76464,0.84492 -2.57903,2.27092 -4.03198,3.16889 l -2.64172,1.63268 -3.64423,-4.06876 c -4.71145,-5.2603 -4.68341,-6.668782 0.20421,-10.256627 l 3.84845,-2.82502 -0.38936,-1.963769 c -0.21414,-1.080073 -1.09555,-4.337509 -1.95868,-7.238748 -0.86313,-2.901238 -1.56933,-6.545963 -1.56933,-8.099388 0,-3.454837 -1.41821,-4.389412 -6.6609,-4.389412 -5.0113,0 -5.7315,-0.9798 -5.04814,-6.867732 0.60846,-5.242517 2.37959,-7.729951 5.10638,-7.171584 7.88532,1.614679 7.70441,1.697123 10.90343,-4.96896 1.32606,-2.763214 3.45204,-6.209694 4.72441,-7.658847 2.96392,-3.375715 2.91025,-4.4760645 -0.41635,-8.5357325 -3.46053,-4.223127 -3.108,-5.81240696 2.12603,-9.584548 5.42465,-3.90952 5.59478,-3.866512 10.61595,2.683587 l 2.07521,2.707112 5.15185,-1.79994796 c 2.83352,-0.98997204 7.00203,-2.03554204 9.26337,-2.32348904 5.31053,-0.676215 5.73233,-1.075786 6.34941,-6.014745 0.7995,-6.3989325 5.1677,-8.0019155 12.50227,-4.5879135 l 1.88976,0.879623 -0.24914,5.7085145 -0.24913,5.70851504 3.5602,1.359653 c 1.95811,0.74780996 5.73022,2.84530696 8.38247,4.66110496 5.80076,3.971361 5.55417,3.954985 9.875,0.655781 3.66447,-2.798025 3.95398,-2.907266 5.8137,-2.193627 5.73652,2.201311 7.48336,10.1480035 2.91415,13.2570315 -4.67303,3.179668 -4.83249,3.487534 -3.4499,6.66056 1.0926,2.507512 2.24769,6.814236 3.76062,14.021389 l 0.63416,3.020942 4.53187,0.63093 c 6.23248,0.86769 6.69612,1.382977 6.08718,6.765262 -0.87538,7.73729 -1.74392,8.476262 -8.19893,6.975747 l -4.33291,-1.007219 -1.12235,1.122345 c -0.61729,0.61729 -1.12234,1.621835 -1.12234,2.232324 0,1.640456 -2.57026,6.387257 -5.62655,10.391217 -3.31835,4.347271 -3.32072,4.768451 -0.0501,8.882861 3.81068,4.79377 3.54286,6.10013 -1.98729,9.69355 -5.39835,3.50777 -6.17952,3.35784 -9.45153,-1.8141 -2.74015,-4.33125 -2.8965,-4.37432 -8.02658,-2.21096 -2.35594,0.9935 -6.49516,2.11957 -9.19827,2.50238 -6.35468,0.89993 -6.24012,0.79754 -6.85905,6.13027 -0.51535,4.4403 -1.83431,6.86641 -3.64205,6.69923 -0.48999,-0.0453 -2.83628,-0.47051 -5.21397,-0.94488 z m 6.96289,-13.3318 c 3.60565,-1.92968 19.4759,-5.3551 23.81689,-5.14062 l 4.53543,0.2241 0.40665,-3.77953 c 0.43857,-4.07627 0.75548,-4.7965 4.83818,-10.995762 1.4807,-2.24833 2.69218,-4.403678 2.69218,-4.789664 0,-1.420112 3.92896,-5.795711 6.27529,-6.988666 1.32969,-0.676059 2.50708,-1.303746 2.61643,-1.39486 0.10934,-0.09111 -0.96641,-1.40115 -2.39056,-2.91119 -1.81305,-1.922385 -2.8349,-3.940216 -3.40833,-6.730329 -0.45043,-2.191642 -1.56765,-6.633314 -2.48272,-9.870383 l -1.66377,-5.885579 0.8449,-3.165394 c 1.06591,-3.993439 0.82574,-4.336267 -3.04845,-4.351474 -1.998,-0.0078 -4.28466,-0.688609 -6.19161,-1.843319 -1.66299,-1.006986 -5.79124,-3.425107 -9.17387,-5.373602 -4.5702,-2.6325645 -6.57316,-4.2951825 -7.7964,-6.4716425 -1.87592,-3.33775296 -2.32967,-3.51801896 -3.62686,-1.440891 -1.30451,2.08885 -4.58565,3.6266 -10.55458,4.946548 -2.82247,0.624149 -6.98335,1.640556 -9.2464,2.258682 -3.04336,0.8312545 -4.81464,0.9294105 -6.80315,0.3769985 -4.36883,-1.2136655 -4.57827,-1.0820895 -4.57827,2.876236 0,2.792841 -0.55508,4.494944 -2.4035,7.370079 -1.32192,2.056199 -3.6184,5.936297 -5.10328,8.622441 -2.36583,4.279761 -5.57007,7.476388 -8.59245,8.572009 -0.58813,0.2132 -0.20797,1.097729 1.07774,2.507607 3.87734,4.251814 7.91453,18.776347 7.2518,26.089705 l -0.38586,4.25794 3.61995,0.34783 c 2.17063,0.20857 5.05939,1.2276 7.21522,2.54521 1.9774,1.20856 6.00941,3.56862 8.96003,5.24459 4.14336,2.35345 5.77916,3.79844 7.18495,6.34686 l 1.82018,3.29964 1.46573,-2.01211 c 0.80615,-1.10666 2.07898,-2.34032 2.82851,-2.74146 z m -8.05348,-9.87932 C 127.25924,66.704002 120.63053,38.564146 136.7073,22.487371 151.58724,7.6074345 177.35057,11.751127 186.50777,30.49712 198.59755,55.246479 175.18837,81.895485 148.72589,73.508015 Z M 168.87972,63.396398 C 192.10257,51.407704 184.56783,17.343695 158.675,17.261632 l -6.04725,-0.01917 -4.31063,2.116811 c -19.29008,9.472718 -17.92457,37.351562 2.19612,44.836883 3.99965,1.487956 14.85026,1.015469 18.36648,-0.799762 z m -14.74016,-2.601785 c -23.97039,-6.294301 -18.45742,-41.10949 6.21526,-39.250302 20.56634,1.549758 25.49923,28.21999 6.9681,37.673865 -3.27325,1.669885 -9.83799,2.454884 -13.18336,1.576437 z m 10.91457,-5.355419 c 5.47372,-2.792481 8.00759,-9.62263 5.75653,-15.516945 -4.55044,-11.915172 -21.32033,-11.078621 -24.63439,1.228865 -2.89931,10.767196 8.64797,19.50698 18.87786,14.28808 z"
         id="path20520" />

    </g>
  </g>
</svg>
