<?xml version="1.0" encoding="UTF-8" standalone="no"?>
<!-- Created with Inkscape (http://www.inkscape.org/) -->

<svg
   version="1.1"
   id="svg1"
   viewBox="0 0 247.559 279.92529"
   xmlns="http://www.w3.org/2000/svg"
   xmlns:svg="http://www.w3.org/2000/svg">
  <defs
     id="defs1" />
  <g
     id="g1"
     style="opacity:1"
     style="image-rendering:optimizeQuality"
     transform="translate(-27.388689,-10.805953)">
    <g
       id="g20"
       transform="translate(-0.08001951,-0.3993666)">
      <path
         style="fill:#16063e"
         d="m 137.28,290.87046 c -21.11439,-1.04545 -34.11091,-3.03815 -38.033886,-5.83156 -1.06643,-0.75936 -1.326116,-1.31698 -1.326116,-2.84755 0,-6.60004 10.499862,-16.25703 28.666002,-26.36486 l 4.906,-2.72974 -3.54591,-3.18618 c -8.89432,-7.99197 -16.79867,-19.44987 -21.67544,-31.42005 l -2.09023,-5.13052 -15.250211,-0.24 -15.25021,-0.24 -2.88,-1.34509 c -5.764654,-2.69235 -8.870622,-7.17937 -8.870622,-12.81491 0,-5.76925 3.559593,-10.65396 9.520016,-13.064 l 2.710606,-1.096 H 115.68 157.2 l 2.7106,1.096 c 5.96042,2.41004 9.52002,7.29475 9.52002,13.064 0,5.63571 -3.10639,10.1232 -8.87062,12.81447 -2.79841,1.30656 -3.14827,1.34929 -12.34853,1.50833 l -9.46852,0.16367 1.96781,2.89773 c 4.54586,6.69408 11.7843,13.08473 19.1558,16.91223 27.9347,14.5045 62.27908,1.50052 73.60413,-27.86908 7.50999,-19.4759 2.87147,-41.30086 -11.9307,-56.13592 -7.93755,-7.95517 -17.88335,-13.09309 -28.75999,-14.85718 -7.67558,-1.2449 -6.60759,-1.91036 -12.03439,7.49854 -2.99223,5.18789 -5.58539,9.06127 -7.04056,10.51644 -2.96995,2.96995 -8.00696,5.48502 -12.51156,6.24726 -12.66724,2.14346 -27.28681,-7.44141 -30.12443,-19.75015 -0.85096,-3.6912 -0.59366,-8.9925 0.60312,-12.42634 1.18438,-3.39827 52.45981,-92.636045 55.62124,-96.801058 2.15832,-2.843474 5.71593,-5.455609 9.51753,-6.988157 2.20572,-0.889195 3.61458,-1.066592 8.74961,-1.101707 l 6.12057,-0.04185 1.55943,-1.504171 C 215.10809,18.001708 216.85852,17.28 219.36,17.28 c 3.35055,0 6.37722,1.86102 7.96285,4.896163 0.89533,1.713806 0.86285,5.832391 -0.0601,7.617128 -0.69854,1.350823 -0.67418,1.508263 0.46425,3.00082 4.30928,5.649762 5.61954,14.503198 3.13081,21.154934 -0.50582,1.351917 -6.76111,12.58509 -13.90064,24.962608 -7.13954,12.377517 -12.92162,22.545267 -12.84909,22.594997 0.0725,0.0497 1.42789,0.36992 3.01189,0.71155 4.69041,1.01158 12.11505,3.75769 17.76,6.56879 35.2067,17.53246 54.11569,56.26486 46.30337,94.84594 -3.22637,15.93338 -11.36247,31.19793 -23.11375,43.3649 l -2.35455,2.43784 4.94246,2.98571 c 7.85117,4.74284 13.71289,9.10182 18.15221,13.49861 5.90194,5.84541 7.45291,9.74887 5.28577,13.30315 -3.32272,5.44949 -23.38106,8.70689 -68.89551,11.18835 -12.2977,0.67047 -57.48183,0.97581 -67.92,0.45897 z M 78.221461,132.76602 c -4.589974,-0.70925 -6.624405,-1.88351 -8.114746,-4.68378 -1.106281,-2.07864 -1.146979,-2.42661 -0.712663,-6.09337 l 0.46062,-3.88883 -2.407337,-0.98571 c -1.324035,-0.54214 -4.11996,-2.13777 -6.213166,-3.54585 l -3.805829,-2.56013 -2.825383,2.07993 c -4.068779,2.99526 -7.749214,3.37364 -10.646598,1.09456 -1.47164,-1.15759 -6.492542,-7.64651 -7.644029,-9.87901 -1.783503,-3.45783 -0.397527,-7.37508 3.754684,-10.612021 1.459142,-1.137504 2.652876,-2.217504 2.652743,-2.4 -1.33e-4,-0.182496 -0.410529,-1.411811 -0.911991,-2.731811 -0.501462,-1.32 -1.285815,-4.284478 -1.743007,-6.587728 -0.902796,-4.548118 -0.747965,-4.388105 -4.778436,-4.938381 -2.968906,-0.405342 -4.574884,-1.215034 -6.170048,-3.11078 -1.676179,-1.992025 -1.990431,-4.155695 -1.316185,-9.062102 0.811419,-5.9046 1.327668,-7.534211 2.984625,-9.42138 2.002608,-2.280844 4.295799,-2.899207 8.593991,-2.317383 l 3.417431,0.4626 1.702485,-3.392422 c 0.936367,-1.865833 2.569566,-4.633046 3.629332,-6.149363 l 1.926847,-2.75694 -1.387401,-1.918306 c -2.338547,-3.23342 -3.065878,-4.954551 -3.066655,-7.25683 -0.001,-3.025059 1.300183,-4.78809 6.425178,-8.705615 6.583995,-5.032779 9.821977,-5.356802 13.76836,-1.377794 1.206857,1.216834 2.548777,2.734951 2.982044,3.373593 l 0.787759,1.161167 4.217956,-1.282043 c 2.319876,-0.705124 5.394771,-1.500177 6.833101,-1.766786 2.817968,-0.522339 3.366104,-0.994017 3.377505,-2.906385 0.01477,-2.477495 1.448591,-6.122826 2.883054,-7.329847 2.450857,-2.062261 4.373256,-2.429703 9.3106,-1.779605 6.154858,0.810407 7.755578,1.300149 9.630688,2.946522 2.24217,1.968647 2.82691,4.005452 2.44203,8.506233 l -0.31551,3.689576 2.89417,1.331136 c 1.59179,0.732125 4.32235,2.308907 6.0679,3.503961 l 3.17374,2.172825 3.20034,-2.185069 c 2.81587,-1.922572 3.50859,-2.184936 5.76628,-2.183961 1.57179,6.79e-4 3.12547,0.326559 4.01013,0.841108 2.0377,1.185211 8.42221,9.78305 8.81352,11.86892 0.70914,3.780032 -1.00443,6.814525 -5.73506,10.156033 l -1.38546,0.97863 1.24707,3.798208 c 0.68589,2.089015 1.48944,5.232801 1.78568,6.98619 l 0.53861,3.187982 3.33102,0.494395 c 4.0963,0.607979 6.10414,1.731345 7.50038,4.19639 1.27531,2.251525 1.33386,3.97673 0.3438,10.129366 -0.8922,5.54454 -1.56372,6.971791 -4.05632,8.621317 -2.00029,1.323726 -4.5314,1.596596 -8.53523,0.920153 l -1.9721,-0.333184 -1.524,3.037799 c -0.83821,1.67079 -2.4699,4.398149 -3.626,6.060792 -1.15609,1.66265 -2.10198,3.11855 -2.10198,3.23534 0,0.11679 0.972,1.63209 2.16,3.36734 1.77878,2.59818 2.16,3.53925 2.16,5.33213 0,3.34784 -1.16632,5.19072 -5.25478,8.303 -5.4286,4.13244 -6.71479,4.81538 -9.07268,4.8174 -3.04369,0.003 -5.11534,-1.20286 -7.58681,-4.41472 -1.63489,-2.12466 -2.38978,-2.75964 -2.9779,-2.50486 -1.88881,0.81825 -8.42015,2.59382 -10.609579,2.88426 -2.619258,0.34746 -2.638079,0.37372 -3.147858,4.39191 -0.367975,2.90046 -1.723924,5.15783 -4.032801,6.71378 -1.856483,1.25109 -4.948344,1.36741 -11.096131,0.41745 z M 96.959998,89.544959 c 3.896452,-2.008977 5.542632,-3.418393 7.611852,-6.517081 3.60822,-5.403347 4.30595,-11.792365 1.96441,-17.987879 -1.51714,-4.014222 -6.27109,-8.771833 -10.296262,-10.304192 -10.074136,-3.83516 -20.310211,0.272025 -24.867485,9.977979 -1.311713,2.793651 -1.507168,3.73121 -1.51897,7.286213 -0.0074,2.244 0.264034,4.995223 0.603295,6.11383 0.982402,3.239154 4.37255,7.763858 7.31244,9.759643 4.103975,2.78604 6.210073,3.356532 11.75072,3.182991 4.159452,-0.130279 5.152302,-0.331986 7.44,-1.511504 z"
         id="path21" />
      <path
         style="fill:#000000"
         d="m 137.28,290.86398 c -18.55945,-0.88276 -31.65776,-2.72858 -36.47529,-5.14011 -2.433819,-1.21831 -2.656649,-1.46837 -2.794403,-3.13588 -0.482852,-5.84491 8.001243,-14.47267 23.220183,-23.61338 2.81334,-1.68973 6.26214,-3.67276 7.66401,-4.40673 l 2.54884,-1.3345 -5.14444,-5.05669 C 117.08231,239.11729 110.98155,230.0473 106.27019,218.4 l -2.03869,-5.04 -15.275751,-0.24 c -15.269057,-0.2399 -15.276933,-0.24056 -17.973356,-1.50488 -3.315902,-1.5548 -6.391999,-4.27108 -7.771395,-6.86238 -0.829362,-1.55802 -1.040645,-2.77747 -1.04524,-6.03274 -0.0051,-3.58986 0.15241,-4.34907 1.310858,-6.31971 1.712645,-2.91338 4.663746,-5.40411 8.005296,-6.75645 L 74.159999,184.56 H 115.68 157.2 l 2.67808,1.08384 c 3.31903,1.34323 6.29287,3.84135 7.96065,6.68719 1.84136,3.14206 2.11898,8.12755 0.64356,11.55725 -1.3073,3.0389 -4.40267,5.99326 -8.07822,7.71022 -2.58075,1.20554 -3.2204,1.28535 -12.15751,1.51699 l -9.43344,0.24451 1.7503,2.64 c 2.59163,3.90899 9.24334,10.6206 13.31636,13.43628 11.35872,7.85227 25.45769,11.10465 38.607,8.90593 4.93401,-0.82503 11.43606,-2.84544 15.11322,-4.69621 4.46363,-2.24661 10.23909,-6.45653 13.95428,-10.17172 22.68343,-22.68343 20.00694,-60.15527 -5.67916,-79.51034 -7.36317,-5.54831 -17.80737,-9.59551 -26.66938,-10.33457 l -3.7268,-0.31081 -4.29947,7.57394 c -5.29718,9.33149 -8.44039,12.94224 -13.35621,15.3429 -7.89739,3.85671 -16.41165,3.16537 -24.96522,-2.0271 -9.96832,-6.05131 -14.70934,-17.91474 -11.17706,-27.9683 0.63307,-1.80184 12.40361,-22.68962 27.8601,-49.440002 29.27045,-50.658064 29.02094,-50.279432 35.05646,-53.197536 4.31409,-2.085808 7.39995,-2.657069 12.65839,-2.343346 l 4.54473,0.271142 1.23725,-1.470397 c 2.98851,-3.551636 8.72955,-3.771388 12.2612,-0.469325 2.62472,2.45409 3.44242,6.505553 2.00658,9.942001 -0.67171,1.607643 -0.64067,1.743142 0.95425,4.164909 3.93609,5.976649 5.00154,14.393717 2.56994,20.302553 -0.65184,1.584 -6.96687,12.894365 -14.03338,25.134145 -7.06652,12.23978 -12.78258,22.291246 -12.70236,22.336586 0.0802,0.0453 1.76586,0.47735 3.74586,0.96003 16.51282,4.02543 33.35379,14.5463 44.44725,27.76703 22.59243,26.92474 27.01936,63.51774 11.4544,94.68221 -3.59361,7.1952 -7.8265,13.33776 -13.75991,19.96769 l -4.17825,4.66874 3.45825,2.03219 c 8.65563,5.08635 18.36543,12.49527 21.84054,16.66509 6.49433,7.79264 4.85232,12.77759 -5.12332,15.55372 -9.71803,2.70445 -32.54171,5.17111 -61.49896,6.64647 -13.39161,0.68229 -56.27877,0.96954 -67.2,0.45008 z"
         id="path20" />
    </g>
  </g>
</svg>
